<svg width="49" height="48" viewBox="0 0 49 48" fill="none" xmlns="http://www.w3.org/2000/svg">
<path fill-rule="evenodd" clip-rule="evenodd" d="M24.4998 4C13.4598 4 4.50977 12.954 4.50977 24C4.50977 34.141 12.0548 42.519 21.8348 43.823V39.793C21.8348 38.657 21.1188 37.635 20.0418 37.274C14.3988 35.377 10.3618 29.981 10.5108 23.663C10.6918 15.971 16.9548 9.923 24.6438 10.001C32.3058 10.079 38.4928 16.317 38.4928 24.001C38.4928 24.721 38.4368 25.441 38.3288 26.152C36.6158 37.443 21.9168 43.789 21.8368 43.824C22.7078 43.939 23.5968 44 24.4998 44C35.5398 44 44.4898 35.046 44.4898 24C44.4898 12.954 35.5398 4 24.4998 4Z" fill="#29B6F6" style="fill:#29B6F6;fill:color(display-p3 0.1608 0.7137 0.9647);fill-opacity:1;"/>
</svg>
