<svg width="17" height="17" viewBox="0 0 17 17" fill="none" xmlns="http://www.w3.org/2000/svg">
<path fill-rule="evenodd" clip-rule="evenodd" d="M6.79334 1.12402H6.72912C5.67735 1.12402 4.84411 1.12401 4.18492 1.20193C3.50816 1.28192 2.95105 1.44986 2.48568 1.83178C2.3278 1.96135 2.18303 2.10612 2.05346 2.264C1.67154 2.72937 1.5036 3.28648 1.42361 3.96324C1.34569 4.62243 1.3457 5.45567 1.3457 6.50744V6.57166C1.3457 7.62342 1.34569 8.45666 1.42361 9.11586C1.5036 9.79262 1.67154 10.3497 2.05346 10.8151C2.18303 10.973 2.3278 11.1177 2.48568 11.2473C2.92671 11.6093 3.45014 11.779 4.08001 11.8639C4.59128 11.9328 5.2067 11.9495 5.94772 11.9537C5.95627 12.362 5.97522 12.7206 6.01718 13.0328C6.09662 13.6236 6.26657 14.1211 6.66168 14.5162C7.0568 14.9113 7.55428 15.0813 8.14514 15.1607C8.71424 15.2372 9.43784 15.2372 10.3356 15.2372H11.064C11.9617 15.2372 12.6853 15.2372 13.2544 15.1607C13.8453 15.0813 14.3428 14.9113 14.7379 14.5162C15.133 14.1211 15.303 13.6236 15.3824 13.0328C15.4589 12.4637 15.4589 11.7401 15.4589 10.8423V10.1139C15.4589 9.21616 15.4589 8.49256 15.3824 7.92346C15.303 7.33261 15.133 6.83512 14.7379 6.44C14.3428 6.04489 13.8453 5.87494 13.2544 5.7955C12.9423 5.75354 12.5837 5.73459 12.1753 5.72604C12.1712 4.98502 12.1545 4.3696 12.0856 3.85833C12.0007 3.22846 11.8309 2.70503 11.469 2.264C11.3394 2.10612 11.1947 1.96135 11.0368 1.83178C10.5714 1.44986 10.0143 1.28192 9.33754 1.20193C8.67835 1.12401 7.84511 1.12402 6.79334 1.12402ZM11.1906 5.71902C11.1862 4.99027 11.1698 4.43559 11.1098 3.98983C11.0383 3.45958 10.9109 3.13606 10.7079 2.88865C10.6192 2.78062 10.5202 2.68157 10.4121 2.59292C10.1513 2.37883 9.80576 2.24877 9.22196 2.17976C8.62729 2.10947 7.85229 2.10866 6.76123 2.10866C5.67017 2.10866 4.89517 2.10947 4.3005 2.17976C3.7167 2.24877 3.37119 2.37883 3.11033 2.59292C3.0023 2.68157 2.90325 2.78062 2.8146 2.88865C2.60051 3.14951 2.47045 3.49502 2.40144 4.07882C2.33115 4.67348 2.33034 5.44849 2.33034 6.53955C2.33034 7.6306 2.33115 8.40561 2.40144 9.00028C2.47045 9.58408 2.60051 9.92958 2.8146 10.1904C2.90325 10.2985 3.0023 10.3975 3.11033 10.4862C3.35774 10.6892 3.68126 10.8166 4.21151 10.8881C4.65727 10.9482 5.21195 10.9646 5.9407 10.9689C5.94069 10.9271 5.94069 10.8849 5.94069 10.8423V10.1139C5.94068 9.21615 5.94067 8.49256 6.01718 7.92346C6.09662 7.3326 6.26657 6.83512 6.66168 6.44C7.0568 6.04489 7.55429 5.87494 8.14514 5.7955C8.71424 5.71899 9.43783 5.719 10.3356 5.71901H11.064C11.1066 5.71901 11.1488 5.71901 11.1906 5.71902ZM7.35793 7.13625C7.5396 6.95457 7.79467 6.83612 8.27634 6.77136C8.77218 6.7047 9.42933 6.70366 10.3716 6.70366H11.028C11.9703 6.70366 12.6274 6.7047 13.1232 6.77136C13.6049 6.83612 13.86 6.95457 14.0417 7.13625C14.2233 7.31792 14.3418 7.57299 14.4065 8.05466C14.4732 8.55049 14.4742 9.20765 14.4742 10.1499V10.8063C14.4742 11.7486 14.4732 12.4057 14.4065 12.9016C14.3418 13.3832 14.2233 13.6383 14.0417 13.82C13.86 14.0017 13.6049 14.1201 13.1232 14.1849C12.6274 14.2515 11.9703 14.2526 11.028 14.2526H10.3716C9.42933 14.2526 8.77217 14.2515 8.27634 14.1849C7.79467 14.1201 7.5396 14.0016 7.35793 13.82C7.17625 13.6383 7.0578 13.3832 6.99304 12.9016C6.92638 12.4057 6.92534 11.7486 6.92534 10.8063V10.1499C6.92534 9.20765 6.92638 8.55049 6.99304 8.05466C7.0578 7.57299 7.17625 7.31792 7.35793 7.13625Z" fill="white" style="fill:white;fill-opacity:1;"/>
</svg>
