<svg width="19" height="25" viewBox="0 0 19 25" fill="none" xmlns="http://www.w3.org/2000/svg">
<path fill-rule="evenodd" clip-rule="evenodd" d="M10.4767 2.06718L2.88371 12.3008C2.82532 12.3795 2.80322 12.5113 2.85177 12.6387C2.86473 12.6727 2.87878 12.6948 2.88879 12.7078H6.56189C7.77515 12.7078 8.4944 13.8135 8.4944 14.8224V22.777C8.4944 22.85 8.5079 22.9002 8.52177 22.9326L16.1147 12.699C16.1731 12.6203 16.1952 12.4885 16.1467 12.3611C16.1337 12.3271 16.1197 12.305 16.1097 12.292H12.4366C11.2233 12.292 10.5041 11.1863 10.5041 10.1774V2.22275C10.5041 2.14982 10.4906 2.09957 10.4767 2.06718ZM11.2135 0.266043C11.9405 0.591439 12.4108 1.34553 12.4108 2.22275V10.1774C12.4108 10.2836 12.4476 10.3536 12.4731 10.3839C12.4735 10.3844 12.4739 10.3848 12.4742 10.3852H16.1454C17.0703 10.3852 17.6825 11.0366 17.9284 11.682C18.1759 12.3313 18.1443 13.1637 17.6461 13.8352L10.0208 24.1123C9.45639 24.873 8.54762 25.0751 7.78497 24.7338C7.05791 24.4084 6.5876 23.6543 6.5876 22.777V14.8224C6.5876 14.7162 6.5509 14.6462 6.52533 14.6159C6.52496 14.6154 6.52459 14.615 6.52424 14.6146H2.85308C1.9281 14.6146 1.316 13.9632 1.07002 13.3178C0.822536 12.6685 0.854184 11.8361 1.35238 11.1646L8.97764 0.887492C9.54206 0.126785 10.4508 -0.0752818 11.2135 0.266043Z" fill="url(#paint0_linear_435_2005)" style=""/>
<defs>
<linearGradient id="paint0_linear_435_2005" x1="9.49922" y1="0.105713" x2="9.49922" y2="24.8941" gradientUnits="userSpaceOnUse">
<stop stop-color="#2B2046" style="stop-color:#2B2046;stop-color:color(display-p3 0.1686 0.1255 0.2745);stop-opacity:1;"/>
<stop offset="1" stop-color="#8D3176" style="stop-color:#8D3176;stop-color:color(display-p3 0.5529 0.1922 0.4627);stop-opacity:1;"/>
</linearGradient>
</defs>
</svg>
