<svg width="17" height="17" viewBox="0 0 17 17" fill="none" xmlns="http://www.w3.org/2000/svg">
<path d="M13.3038 3.62382C12.1706 2.4444 10.3248 2.4444 9.19152 3.62382L8.72314 4.11129C8.53476 4.30735 8.54098 4.61901 8.73704 4.80739C8.93311 4.99578 9.24477 4.98956 9.43315 4.79349L9.90153 4.30603C10.6473 3.52985 11.848 3.52985 12.5938 4.30603C13.3502 5.09328 13.3502 6.3775 12.5938 7.16475L10.4674 9.37783C10.3494 9.50059 10.2209 9.60322 10.0856 9.68637C9.35827 10.1334 8.40562 10.034 7.77511 9.37783C7.67254 9.27108 7.58399 9.15542 7.50934 9.03316C7.36764 8.8011 7.06464 8.72785 6.83259 8.86955C6.60053 9.01125 6.52728 9.31425 6.66898 9.5463C6.78026 9.72855 6.91234 9.90105 7.0651 10.06C8.01988 11.0537 9.48352 11.2122 10.6012 10.5252C10.8078 10.3983 11.0016 10.243 11.1774 10.06L13.3038 7.84695C14.4264 6.6786 14.4264 4.79217 13.3038 3.62382Z" fill="white" style="fill:white;fill-opacity:1;"/>
<path d="M9.73892 6.90596C8.60567 5.72654 6.75985 5.72654 5.62661 6.90596L3.50016 9.11904C2.37755 10.2874 2.37755 12.1738 3.50016 13.3422C4.63341 14.5216 6.47923 14.5216 7.61248 13.3422L8.08102 12.8545C8.26941 12.6585 8.26319 12.3468 8.06712 12.1584C7.87106 11.97 7.5594 11.9763 7.37102 12.1723L6.90247 12.66C6.15668 13.4361 4.95596 13.4361 4.21017 12.66C3.45374 11.8727 3.45374 10.5885 4.21017 9.80125L6.33661 7.58817C7.0824 6.81199 8.28312 6.81199 9.02892 7.58817C9.13146 7.69489 9.21999 7.81052 9.29463 7.93274C9.43635 8.16479 9.73934 8.23802 9.97139 8.09631C10.2034 7.95459 10.2767 7.6516 10.135 7.41955C10.0237 7.23735 9.89164 7.0649 9.73892 6.90596Z" fill="white" style="fill:white;fill-opacity:1;"/>
</svg>
