<svg width="62" height="88" viewBox="0 0 62 88" fill="none" xmlns="http://www.w3.org/2000/svg">
<path d="M12.3721 12.28C1.96794 19.2566 -2.79973 33.71 3.98952 44.7727C7.47548 50.4537 13.1273 54.3602 19.2258 56.7962C25.5177 59.309 32.2594 60.4142 38.1584 63.8863C43.3221 66.9256 47.4543 71.9067 49.023 77.7442C49.8888 80.9677 50.0131 84.3508 49.634 87.6572C49.6831 87.232 51.4898 86.0071 51.8014 85.7001C53.5159 84.01 55.0832 82.1604 56.4462 80.1741C60.187 74.7264 62.2899 68.103 60.7212 61.5225C59.2107 55.186 54.8759 49.548 49.4758 45.9914C43.4372 42.0158 36.0094 41.1409 29.3598 38.6097C24.7487 36.8552 20.219 33.3309 17.0738 29.6008C15.2134 27.3951 13.7167 24.8731 12.8495 22.1132C12.3675 20.5782 12.082 18.9864 11.9976 17.3808C11.9546 16.5734 11.666 12.7543 12.3736 12.28H12.3721Z" fill="white" style="fill:white;fill-opacity:1;"/>
<path d="M38.9495 0.65249L27.8562 17.1997C27.6919 17.4437 27.8669 17.7738 28.1616 17.7738H50.3468C50.6415 17.7738 50.8165 17.4453 50.6523 17.1997L39.5589 0.65249C39.4131 0.434522 39.0923 0.434522 38.9465 0.65249H38.9495Z" fill="white" style="fill:white;fill-opacity:1;"/>
<path opacity="0.75" d="M38.9497 18.5827L32.5105 28.1871C32.3462 28.4312 32.5212 28.7612 32.8159 28.7612H45.6945C45.9892 28.7612 46.1642 28.4327 45.9999 28.1871L39.5607 18.5827C39.4148 18.3647 39.094 18.3647 38.9482 18.5827H38.9497Z" fill="white" style="fill:white;fill-opacity:1;"/>
<path opacity="0.5" d="M38.9506 29.8373L34.0632 37.127C33.8989 37.371 34.0739 37.7011 34.3687 37.7011H44.1419C44.4366 37.7011 44.6116 37.3726 44.4474 37.127L39.56 29.8373C39.4142 29.6193 39.0934 29.6193 38.9475 29.8373H38.9506Z" fill="white" style="fill:white;fill-opacity:1;"/>
</svg>
