<svg width="136" height="30" viewBox="0 0 136 30" fill="none" xmlns="http://www.w3.org/2000/svg">
<path d="M4.64994 4.19141C1.12717 6.55345 -0.487212 11.448 1.8117 15.1935C2.99227 17.1173 4.90518 18.4394 6.9705 19.2647C9.10076 20.1151 11.3834 20.4894 13.3811 21.6655C15.1299 22.6945 16.5287 24.3811 17.0599 26.358C17.353 27.4493 17.3945 28.5956 17.2674 29.7148C17.2836 29.5705 17.896 29.1557 18.0006 29.0519C18.5814 28.4802 19.1117 27.8533 19.5735 27.1814C20.8397 25.3371 21.5522 23.0941 21.021 20.8655C20.5096 18.7199 19.0414 16.8106 17.2132 15.6066C15.1687 14.2601 12.6533 13.9643 10.4022 13.1075C8.84102 12.5131 7.3069 11.3199 6.24177 10.0573C5.61226 9.31052 5.1054 8.45643 4.81138 7.52208C4.64814 7.00259 4.55164 6.46326 4.52278 5.91942C4.50835 5.64615 4.41004 4.35284 4.64994 4.19231V4.19141Z" fill="white" style="fill:white;fill-opacity:1;"/>
<path d="M13.6491 0.254685L9.8936 5.85721C9.83768 5.94019 9.8972 6.05112 9.99731 6.05112H17.5091C17.6092 6.05112 17.6679 5.94019 17.6129 5.85721L13.8574 0.254685C13.8078 0.18073 13.6996 0.18073 13.65 0.254685H13.6491Z" fill="white" style="fill:white;fill-opacity:1;"/>
<path opacity="0.75" d="M13.6487 6.32549L11.4688 9.57769C11.4129 9.66067 11.4724 9.7716 11.5725 9.7716H15.9331C16.0332 9.7716 16.0919 9.66067 16.0369 9.57769L13.857 6.32549C13.8074 6.25153 13.6992 6.25153 13.6496 6.32549H13.6487Z" fill="white" style="fill:white;fill-opacity:1;"/>
<path opacity="0.5" d="M13.6491 10.1355L11.9942 12.604C11.9383 12.687 11.9978 12.7979 12.0979 12.7979H15.4069C15.507 12.7979 15.5657 12.687 15.5106 12.604L13.8557 10.1355C13.8061 10.0616 13.6978 10.0616 13.6482 10.1355H13.6491Z" fill="white" style="fill:white;fill-opacity:1;"/>
<path d="M38.4775 23.9399H40.2425V24.3575H38.969V25.1521H40.164V25.5642H38.969V26.7782H38.4766V23.9399H38.4775Z" fill="white" style="fill:white;fill-opacity:1;"/>
<path d="M45.3605 25.6851C45.3605 26.3029 45.0737 26.817 44.3657 26.817C43.6577 26.817 43.3926 26.2732 43.3926 25.696C43.3926 25.1575 43.6938 24.6128 44.3937 24.6128C45.0503 24.6128 45.3605 25.0971 45.3605 25.6842V25.6851ZM43.8886 25.686C43.8886 26.1514 44.06 26.4301 44.3865 26.4301C44.7129 26.4301 44.8663 26.155 44.8663 25.6887C44.8663 25.254 44.7048 25.0015 44.3729 25.0015C44.0591 25.0015 43.8895 25.2739 43.8895 25.6869L43.8886 25.686Z" fill="white" style="fill:white;fill-opacity:1;"/>
<path d="M48.6722 25.3745C48.6722 25.0291 48.6713 24.7874 48.6641 24.6548H49.1394C49.1493 24.7495 49.152 24.8848 49.152 25.0471C49.2332 24.8406 49.4352 24.6223 49.8095 24.6196V25.1157C49.3585 25.1166 49.1592 25.3096 49.1592 25.7876V26.7797H48.6722V25.3754V25.3745Z" fill="white" style="fill:white;fill-opacity:1;"/>
<path d="M57.2949 25.9528C57.3409 26.2486 57.5366 26.42 57.8504 26.42C58.1643 26.42 58.3302 26.2685 58.3302 26.0277C58.3302 25.7508 58.1769 25.6354 57.7368 25.5055C57.101 25.3233 56.8755 25.1005 56.8755 24.692C56.8755 24.1914 57.2687 23.9028 57.8053 23.9028C58.4619 23.9028 58.7406 24.2591 58.7731 24.6965H58.2797C58.2418 24.4593 58.1183 24.2915 57.799 24.2915C57.5176 24.2915 57.3787 24.425 57.3787 24.6433C57.3787 24.8742 57.523 24.949 57.9433 25.0735C58.6594 25.2854 58.8425 25.5677 58.8425 25.9691C58.8425 26.4353 58.5286 26.8123 57.8279 26.8123C57.2191 26.8123 56.8358 26.4985 56.7988 25.9519H57.2949V25.9528Z" fill="white" style="fill:white;fill-opacity:1;"/>
<path d="M62.1487 25.3131C62.1487 24.9082 62.1442 24.7513 62.1406 24.6539H62.6132C62.6231 24.7206 62.6286 24.8451 62.6304 24.9226C62.7377 24.7486 62.9235 24.6133 63.222 24.6133C63.5205 24.6133 63.6792 24.7513 63.7559 24.956C63.8497 24.7792 64.0716 24.6133 64.389 24.6133C64.7363 24.6133 65.0519 24.7955 65.0519 25.3483V26.7787H64.5739V25.4295C64.5739 25.2157 64.5009 25.0182 64.2411 25.0182C63.9588 25.0182 63.8425 25.2329 63.8425 25.5567V26.7787H63.3654V25.4115C63.3654 25.1968 63.2698 25.0209 63.0335 25.0209C62.7729 25.0209 62.6285 25.1968 62.6285 25.5864V26.7787H62.1478V25.3141L62.1487 25.3131Z" fill="white" style="fill:white;fill-opacity:1;"/>
<path d="M70.0833 26.2548C70.0833 26.3991 70.0941 26.6408 70.113 26.7788H69.6828C69.6675 26.712 69.654 26.5885 69.6513 26.4983C69.5656 26.685 69.3609 26.8167 69.0407 26.8167C68.5176 26.8167 68.3408 26.4821 68.3408 26.17C68.3408 25.8084 68.5861 25.4801 69.3302 25.4801H69.6053V25.3087C69.6053 25.1256 69.5503 24.966 69.2635 24.966C68.9956 24.966 68.9207 25.0977 68.8955 25.2799H68.4229C68.4481 24.938 68.6511 24.6143 69.2725 24.6143C69.755 24.6143 70.0824 24.7892 70.0824 25.3006V26.2557L70.0833 26.2548ZM69.6215 25.8002H69.3374C68.9117 25.8002 68.8324 25.9734 68.8324 26.1321C68.8324 26.2909 68.9316 26.4379 69.1624 26.4379C69.5241 26.4379 69.6224 26.1962 69.6224 25.8435V25.7993L69.6215 25.8002Z" fill="white" style="fill:white;fill-opacity:1;"/>
<path d="M73.5296 25.3745C73.5296 25.0291 73.5287 24.7874 73.5215 24.6548H73.9968C74.0067 24.7495 74.0094 24.8848 74.0094 25.0471C74.0906 24.8406 74.2926 24.6223 74.6669 24.6196V25.1157C74.2159 25.1166 74.0166 25.3096 74.0166 25.7876V26.7797H73.5296V25.3754V25.3745Z" fill="white" style="fill:white;fill-opacity:1;"/>
<path d="M77.7724 24.6552H78.0853V24.0645H78.5688V24.6552H78.9638V25.0385H78.5688V26.2091C78.5688 26.3661 78.6066 26.431 78.7825 26.431C78.8357 26.431 78.8673 26.4283 78.9223 26.4202V26.7638C78.8231 26.7972 78.6788 26.8026 78.6021 26.8026C78.226 26.8026 78.0844 26.6538 78.0844 26.2732V25.0394H77.7715V24.6561L77.7724 24.6552Z" fill="white" style="fill:white;fill-opacity:1;"/>
<path d="M86.4609 25.9528C86.5069 26.2486 86.7026 26.42 87.0164 26.42C87.3303 26.42 87.4962 26.2685 87.4962 26.0277C87.4962 25.7508 87.3429 25.6354 86.9028 25.5055C86.267 25.3233 86.0415 25.1005 86.0415 24.692C86.0415 24.1914 86.4347 23.9028 86.9714 23.9028C87.6279 23.9028 87.9066 24.2591 87.9391 24.6965H87.4457C87.4079 24.4593 87.2843 24.2915 86.965 24.2915C86.6836 24.2915 86.5448 24.425 86.5448 24.6433C86.5448 24.8742 86.6891 24.949 87.1093 25.0735C87.8254 25.2854 88.0085 25.5677 88.0085 25.9691C88.0085 26.4353 87.6947 26.8123 86.9939 26.8123C86.3851 26.8123 86.0018 26.4985 85.9648 25.9519H86.4609V25.9528Z" fill="white" style="fill:white;fill-opacity:1;"/>
<path d="M93.1779 25.6851C93.1779 26.3029 92.8911 26.817 92.1831 26.817C91.4751 26.817 91.21 26.2732 91.21 25.696C91.21 25.1575 91.5112 24.6128 92.2111 24.6128C92.8676 24.6128 93.1779 25.0971 93.1779 25.6842V25.6851ZM91.7069 25.686C91.7069 26.1514 91.8783 26.4301 92.2047 26.4301C92.5312 26.4301 92.6845 26.155 92.6845 25.6887C92.6845 25.254 92.5231 25.0015 92.1912 25.0015C91.8774 25.0015 91.7078 25.2739 91.7078 25.6869L91.7069 25.686Z" fill="white" style="fill:white;fill-opacity:1;"/>
<path d="M96.4902 26.778V23.772H96.9773V26.778H96.4902Z" fill="white" style="fill:white;fill-opacity:1;"/>
<path d="M102.125 26.16C102.125 26.4522 102.129 26.6714 102.133 26.7778H101.66C101.648 26.7156 101.644 26.6119 101.641 26.4946C101.522 26.7192 101.323 26.8148 101.044 26.8148C100.65 26.8148 100.39 26.5848 100.39 26.0753V24.6548H100.873V25.9914C100.873 26.2322 100.955 26.4099 101.216 26.4099C101.476 26.4099 101.636 26.2457 101.636 25.8408V24.6548H102.125V26.16Z" fill="white" style="fill:white;fill-opacity:1;"/>
<path d="M105.348 24.6552H105.661V24.0645H106.144V24.6552H106.539V25.0385H106.144V26.2091C106.144 26.3661 106.182 26.431 106.358 26.431C106.411 26.431 106.442 26.4283 106.497 26.4202V26.7638C106.398 26.7972 106.254 26.8026 106.177 26.8026C105.801 26.8026 105.66 26.6538 105.66 26.2732V25.0394H105.347V24.6561L105.348 24.6552Z" fill="white" style="fill:white;fill-opacity:1;"/>
<path d="M109.771 23.772H110.259V24.2644H109.771V23.772ZM109.771 24.6549H110.259V26.7789H109.771V24.6549Z" fill="white" style="fill:white;fill-opacity:1;"/>
<path d="M115.54 25.6851C115.54 26.3029 115.253 26.817 114.545 26.817C113.837 26.817 113.572 26.2732 113.572 25.696C113.572 25.1575 113.873 24.6128 114.573 24.6128C115.23 24.6128 115.54 25.0971 115.54 25.6842V25.6851ZM114.068 25.686C114.068 26.1514 114.24 26.4301 114.566 26.4301C114.893 26.4301 115.046 26.155 115.046 25.6887C115.046 25.254 114.885 25.0015 114.553 25.0015C114.239 25.0015 114.069 25.2739 114.069 25.6869L114.068 25.686Z" fill="white" style="fill:white;fill-opacity:1;"/>
<path d="M118.852 25.3177C118.852 24.8784 118.847 24.7468 118.844 24.6548H119.319C119.326 24.6936 119.337 24.8532 119.336 24.9488C119.423 24.7756 119.621 24.6133 119.94 24.6133C120.368 24.6133 120.612 24.8766 120.612 25.3934V26.7778H120.124V25.4827C120.124 25.2194 120.05 25.0209 119.768 25.0209C119.486 25.0209 119.34 25.2139 119.34 25.6099V26.7787H118.853V25.3186L118.852 25.3177Z" fill="white" style="fill:white;fill-opacity:1;"/>
<path d="M124.344 26.1384C124.373 26.3413 124.52 26.4558 124.747 26.4558C124.973 26.4558 125.084 26.3539 125.084 26.2024C125.084 26.0509 124.958 25.976 124.622 25.8822C124.073 25.7298 123.939 25.5341 123.939 25.2383C123.939 24.9659 124.116 24.6133 124.715 24.6133C125.262 24.6133 125.486 24.9001 125.512 25.2473H125.037C125.014 25.1129 124.941 24.9722 124.692 24.9722C124.512 24.9722 124.417 25.0543 124.417 25.1941C124.417 25.3222 124.5 25.388 124.824 25.471C125.391 25.6189 125.565 25.8209 125.565 26.1582C125.565 26.5803 125.218 26.8148 124.732 26.8148C124.246 26.8148 123.911 26.5911 123.868 26.1384H124.344Z" fill="white" style="fill:white;fill-opacity:1;"/>
<path d="M34.5911 10.6685C31.4805 9.8965 30.3712 9.17319 30.3712 7.3171C30.3712 5.46102 31.6978 4.30299 34.1329 4.30299C36.7854 4.30299 37.9669 5.60532 38.3529 7.4136H39.703C39.4856 5.36361 37.9182 3.09717 34.2051 3.09717C30.492 3.09717 28.9723 5.17061 28.9723 7.38925C28.9723 9.82435 30.5155 10.9824 34.0842 11.8743C37.7973 12.7907 38.6415 13.9721 38.6415 15.8769C38.6415 17.7817 37.46 19.2527 34.3737 19.2527C31.6004 19.2527 30.106 17.926 29.5991 15.6839H28.249C28.5629 17.9504 30.106 20.4098 34.3259 20.4098C38.232 20.4098 40.0412 18.2633 40.0412 15.7804C40.0412 13.7548 39.3422 11.85 34.592 10.6685H34.5911Z" fill="white" style="fill:white;fill-opacity:1;"/>
<path d="M51.4946 18.6014H51.4468C50.82 16.6967 47.9024 9.1244 45.5873 3.33789H43.6338V20.2176H44.9361V13.0314C44.9361 10.1381 44.8883 6.2077 44.7675 4.27856H44.8153C45.5873 6.83451 49.1317 16.0942 50.747 20.2176H52.025C54.1715 14.8884 57.595 6.56935 58.2705 4.30291H58.3427C58.2705 5.99124 58.2462 9.14966 58.2462 12.4533V20.2176H59.5485V3.33789H57.6194C55.2564 8.95665 51.8807 17.3722 51.4946 18.6014Z" fill="white" style="fill:white;fill-opacity:1;"/>
<path d="M68.735 3.33789L62.5381 20.2176H63.8648L66.0113 14.3824H73.1244L75.3187 20.2176H76.741L70.279 3.33789H68.7359H68.735ZM66.4685 13.1757C67.9873 8.8836 69.0732 5.89384 69.4826 4.61586H69.507C69.8443 5.74954 70.8093 8.16028 72.6897 13.1757H66.4685Z" fill="white" style="fill:white;fill-opacity:1;"/>
<path d="M90.8706 7.77518C90.8706 5.12273 89.1101 3.33789 85.783 3.33789H79.7305V20.2176H81.0571V12.3324H85.2049C88.4364 12.3324 89.2562 13.4895 89.2562 16.2628V16.6967C89.2562 18.1433 89.1841 19.4934 89.497 20.2176H90.8237C90.5098 19.5665 90.6063 17.9746 90.6063 16.7932V16.142C90.6063 13.2722 89.4492 12.1394 87.7131 11.7291C89.5935 11.3196 90.8715 9.92077 90.8715 7.77428L90.8706 7.77518ZM85.1319 11.1266H81.0562V4.54371H85.4935C88.1216 4.54371 89.4727 5.72519 89.4727 7.79863C89.4727 10.0173 88.0982 11.1266 85.1319 11.1266Z" fill="white" style="fill:white;fill-opacity:1;"/>
<path d="M92.8477 4.54371H98.5142V20.2176H99.8409V4.54371H105.532V3.33789H92.8477V4.54371Z" fill="white" style="fill:white;fill-opacity:1;"/>
<path d="M110.859 3.33789V13.9279C110.859 16.4207 111.743 18.2831 114.613 18.2831C117.483 18.2831 118.294 16.5064 118.294 13.9152V3.33879H120.657V14.0009C120.657 17.5048 119.198 20.2185 114.554 20.2185C110.197 20.2185 108.521 17.9133 108.521 14.1064V3.33879H110.86L110.859 3.33789Z" fill="white" style="fill:white;fill-opacity:1;"/>
<path d="M124.627 3.33789H130.315C133.415 3.33789 135.79 4.94415 135.79 8.01508C135.79 11.3187 133.446 12.9574 130.038 12.9574H126.951V19.9759H124.626V3.33789H124.627ZM126.952 11.0599H129.929C132.024 11.0599 133.418 10.3293 133.418 8.06108C133.418 6.11029 132.016 5.23276 129.971 5.23276H126.952V11.0599Z" fill="white" style="fill:white;fill-opacity:1;"/>
</svg>
