<svg width="37" height="36" viewBox="0 0 37 36" fill="none" xmlns="http://www.w3.org/2000/svg">
<path d="M33.5247 15.0418V19.4793C33.5247 25.396 30.5664 28.3543 24.6497 28.3543H23.9102C23.4516 28.3543 23.0079 28.5762 22.7268 28.946L20.5081 31.9043C19.5318 33.206 17.9343 33.206 16.9581 31.9043L14.7393 28.946C14.5027 28.6206 13.9554 28.3543 13.556 28.3543H12.8164C6.89974 28.3543 3.94141 26.8752 3.94141 19.4793V12.0835C3.94141 6.16683 6.89974 3.2085 12.8164 3.2085H21.6914" stroke="#1A1A1A" style="stroke:#1A1A1A;stroke:color(display-p3 0.1020 0.1020 0.1020);stroke-opacity:1;" stroke-width="2.21875" stroke-miterlimit="10" stroke-linecap="round" stroke-linejoin="round"/>
<path d="M29.8268 10.6043C31.8691 10.6043 33.5247 8.94872 33.5247 6.90641C33.5247 4.86411 31.8691 3.2085 29.8268 3.2085C27.7845 3.2085 26.1289 4.86411 26.1289 6.90641C26.1289 8.94872 27.7845 10.6043 29.8268 10.6043Z" fill="#8D3176" stroke="#1A1A1A" style="fill:#8D3176;fill:color(display-p3 0.5529 0.1922 0.4627);fill-opacity:1;stroke:#1A1A1A;stroke:color(display-p3 0.1020 0.1020 0.1020);stroke-opacity:1;" stroke-width="2.21875" stroke-linecap="round" stroke-linejoin="round"/>
<path d="M24.6445 16.5208H24.6578" stroke="#1A1A1A" style="stroke:#1A1A1A;stroke:color(display-p3 0.1020 0.1020 0.1020);stroke-opacity:1;" stroke-width="2.95833" stroke-linecap="round" stroke-linejoin="round"/>
<path d="M18.7266 16.5208H18.7399" stroke="#1A1A1A" style="stroke:#1A1A1A;stroke:color(display-p3 0.1020 0.1020 0.1020);stroke-opacity:1;" stroke-width="2.95833" stroke-linecap="round" stroke-linejoin="round"/>
<path d="M12.8086 16.5208H12.8219" stroke="#1A1A1A" style="stroke:#1A1A1A;stroke:color(display-p3 0.1020 0.1020 0.1020);stroke-opacity:1;" stroke-width="2.95833" stroke-linecap="round" stroke-linejoin="round"/>
</svg>
