<svg width="24" height="24" viewBox="0 0 24 24" fill="none" xmlns="http://www.w3.org/2000/svg">
<path d="M11.8494 0.477539C18.1136 0.477539 23.21 5.57397 23.21 11.8382C23.21 18.1024 18.1136 23.1987 11.8494 23.1987C5.58513 23.1987 0.488771 18.1024 0.488771 11.8382C0.488771 5.57397 5.58513 0.477539 11.8494 0.477539Z" fill="url(#paint0_linear_447_752)" style=""/>
<path d="M10.4309 6.97677C10.8342 6.5735 11.4881 6.5735 11.8914 6.97677C12.2948 7.38003 12.2948 8.03399 11.8914 8.43733L9.52328 10.8055L16.6694 10.8059C17.2398 10.8059 17.7022 11.2684 17.7021 11.8388C17.7021 12.4091 17.2397 12.8715 16.6693 12.8715L9.52355 12.8711L11.8915 15.2391C12.2948 15.6424 12.2948 16.2963 11.8915 16.6996C11.6898 16.9013 11.4256 17.0022 11.1613 17.0022C10.8969 17.0022 10.6326 16.9013 10.431 16.6996L6.2999 12.5685C6.10601 12.3746 5.99722 12.112 5.99722 11.8381C5.99722 11.5641 6.10608 11.3014 6.29976 11.1078L10.4309 6.97677Z" fill="white" style="fill:white;fill-opacity:1;"/>
<defs>
<linearGradient id="paint0_linear_447_752" x1="11.8494" y1="0.477539" x2="11.8494" y2="23.1987" gradientUnits="userSpaceOnUse">
<stop stop-color="#8D3176" style="stop-color:#8D3176;stop-color:color(display-p3 0.5529 0.1922 0.4627);stop-opacity:1;"/>
<stop offset="1" stop-color="#2D1A39" style="stop-color:#2D1A39;stop-color:color(display-p3 0.1765 0.1020 0.2235);stop-opacity:1;"/>
</linearGradient>
</defs>
</svg>
