<svg width="20" height="20" viewBox="0 0 20 20" fill="none" xmlns="http://www.w3.org/2000/svg">
<path d="M17.1199 5.13559L14.5362 15.4704C14.39 16.0833 14.0399 16.6284 13.5433 17.0163C13.0467 17.4041 12.433 17.6117 11.8029 17.6051H11.7871C11.1528 17.6086 10.5364 17.3948 10.0405 16.9993C9.5446 16.6037 9.19915 16.0502 9.06164 15.431L8.3842 12.5558L12.6221 8.31794C12.6955 8.2445 12.7538 8.15731 12.7935 8.06135C12.8333 7.96539 12.8538 7.86254 12.8538 7.75867C12.8538 7.6548 12.8333 7.55195 12.7935 7.45599C12.7538 7.36003 12.6955 7.27284 12.6221 7.19939C12.5487 7.12595 12.4615 7.06769 12.3655 7.02794C12.2695 6.98819 12.1667 6.96773 12.0628 6.96773C11.959 6.96773 11.8561 6.98819 11.7601 7.02794C11.6642 7.06769 11.577 7.12595 11.5035 7.19939L7.26565 11.4373L4.3905 10.7599C3.77522 10.6159 3.22622 10.2693 2.83179 9.77559C2.43737 9.28191 2.22044 8.66993 2.21589 8.03805C2.21135 7.40618 2.41945 6.79114 2.80673 6.29184C3.19401 5.79255 3.73797 5.43801 4.35111 5.28525L14.6859 2.70155C15.0222 2.61747 15.3745 2.6219 15.7085 2.71442C16.0425 2.80693 16.3469 2.98437 16.592 3.22947C16.8371 3.47456 17.0146 3.77894 17.1071 4.11298C17.1996 4.44702 17.204 4.79933 17.1199 5.13559Z" fill="white" style="fill:white;fill-opacity:1;"/>
</svg>
