<svg width="130" height="129" viewBox="0 0 130 129" fill="none" xmlns="http://www.w3.org/2000/svg">
<path d="M41.6596 25.8965C33.5637 31.3252 29.8538 42.5721 35.1368 51.1805C37.8494 55.6011 42.2473 58.641 46.9928 60.5366C51.8889 62.4919 57.1349 63.3519 61.7251 66.0537C65.7432 68.4187 68.9587 72.2947 70.1794 76.8372C70.8531 79.3455 70.9498 81.978 70.6548 84.5509C70.693 84.22 72.0989 83.2668 72.3413 83.028C73.6755 81.7129 74.8951 80.2736 75.9557 78.728C78.8666 74.4889 80.503 69.3348 79.2823 64.2143C78.1069 59.2836 74.7338 54.8964 70.5318 52.1289C65.8328 49.0353 60.0529 48.3544 54.8786 46.3848C51.2905 45.0195 47.7656 42.2771 45.3182 39.3746C43.8706 37.6582 42.706 35.6957 42.0311 33.5481C41.6561 32.3537 41.4339 31.115 41.3682 29.8656C41.3348 29.2373 41.1102 26.2656 41.6608 25.8965H41.6596Z" fill="white" style="fill:white;fill-opacity:1;"/>
<path d="M62.3416 16.8489L53.7093 29.725C53.5815 29.9149 53.7177 30.1717 53.947 30.1717H71.2103C71.4397 30.1717 71.5758 29.9161 71.448 29.725L62.8158 16.8489C62.7023 16.6793 62.4527 16.6793 62.3392 16.8489H62.3416Z" fill="white" style="fill:white;fill-opacity:1;"/>
<path opacity="0.75" d="M62.3411 30.802L57.3304 38.2757C57.2026 38.4656 57.3388 38.7224 57.5681 38.7224H67.5895C67.8188 38.7224 67.955 38.4668 67.8272 38.2757L62.8165 30.802C62.703 30.6324 62.4534 30.6324 62.3399 30.802H62.3411Z" fill="white" style="fill:white;fill-opacity:1;"/>
<path opacity="0.5" d="M62.3415 39.5588L58.5384 45.2313C58.4106 45.4212 58.5468 45.678 58.7761 45.678H66.3812C66.6105 45.678 66.7467 45.4224 66.6188 45.2313L62.8157 39.5588C62.7023 39.3892 62.4526 39.3892 62.3392 39.5588H62.3415Z" fill="white" style="fill:white;fill-opacity:1;"/>
<path d="M22.5977 109.483H24.3117V109.89H23.0754V110.661H24.2364V111.061H23.0754V112.24H22.5977V109.483Z" fill="white" style="fill:white;fill-opacity:1;"/>
<path d="M29.2822 111.179C29.2822 111.78 29.0027 112.278 28.3159 112.278C27.6291 112.278 27.3711 111.75 27.3711 111.19C27.3711 110.667 27.6637 110.138 28.3434 110.138C28.9812 110.138 29.2822 110.607 29.2822 111.178V111.179ZM27.8537 111.179C27.8537 111.631 28.0197 111.902 28.3374 111.902C28.6551 111.902 28.8032 111.634 28.8032 111.182C28.8032 110.76 28.6468 110.514 28.3243 110.514C28.0197 110.514 27.8548 110.778 27.8548 111.179H27.8537Z" fill="white" style="fill:white;fill-opacity:1;"/>
<path d="M32.5005 110.877C32.5005 110.541 32.4994 110.306 32.4922 110.178H32.9532C32.9628 110.27 32.9652 110.402 32.9652 110.559C33.044 110.359 33.2399 110.146 33.6042 110.144V110.625C33.1659 110.625 32.9724 110.814 32.9724 111.277V112.24H32.4994V110.876L32.5005 110.877Z" fill="white" style="fill:white;fill-opacity:1;"/>
<path d="M40.8744 111.438C40.9186 111.725 41.1085 111.892 41.4143 111.892C41.72 111.892 41.8801 111.744 41.8801 111.511C41.8801 111.242 41.7308 111.13 41.3032 111.005C40.6857 110.828 40.4659 110.612 40.4659 110.215C40.4659 109.729 40.8481 109.448 41.3689 109.448C42.0067 109.448 42.2778 109.795 42.3089 110.219H41.8299C41.7929 109.988 41.6723 109.826 41.3629 109.826C41.0894 109.826 40.9544 109.955 40.9544 110.167C40.9544 110.391 41.0942 110.465 41.5027 110.585C42.1978 110.791 42.3758 111.066 42.3758 111.455C42.3758 111.908 42.0712 112.274 41.3904 112.274C40.7991 112.274 40.4265 111.97 40.3906 111.439H40.872L40.8744 111.438Z" fill="white" style="fill:white;fill-opacity:1;"/>
<path d="M45.5884 110.818C45.5884 110.423 45.5849 110.272 45.5801 110.177H46.0387C46.0483 110.242 46.0531 110.362 46.0555 110.438C46.1594 110.268 46.3409 110.137 46.63 110.137C46.9191 110.137 47.0743 110.27 47.1484 110.469C47.2392 110.298 47.4542 110.137 47.7635 110.137C48.1004 110.137 48.4073 110.313 48.4073 110.85V112.239H47.9427V110.929C47.9427 110.721 47.871 110.53 47.6202 110.53C47.3467 110.53 47.2332 110.739 47.2332 111.053V112.24H46.7697V110.912C46.7697 110.703 46.6766 110.533 46.4472 110.533C46.194 110.533 46.0543 110.704 46.0543 111.083V112.24H45.5872V110.818H45.5884Z" fill="white" style="fill:white;fill-opacity:1;"/>
<path d="M53.2951 111.732C53.2951 111.873 53.3058 112.107 53.3237 112.241H52.9057C52.8913 112.176 52.877 112.056 52.8746 111.969C52.791 112.149 52.5927 112.278 52.2822 112.278C51.7745 112.278 51.6025 111.953 51.6025 111.65C51.6025 111.298 51.8402 110.98 52.5641 110.98H52.8316V110.812C52.8316 110.634 52.7779 110.48 52.4996 110.48C52.2392 110.48 52.1663 110.608 52.1424 110.785H51.6838C51.7088 110.453 51.9047 110.139 52.5091 110.139C52.9773 110.139 53.2963 110.308 53.2963 110.805V111.732H53.2951ZM52.8471 111.29H52.5712C52.158 111.29 52.0803 111.459 52.0803 111.613C52.0803 111.767 52.1771 111.91 52.4016 111.91C52.7528 111.91 52.8483 111.676 52.8483 111.333V111.29H52.8471Z" fill="white" style="fill:white;fill-opacity:1;"/>
<path d="M56.6431 110.877C56.6431 110.541 56.6419 110.306 56.6348 110.178H57.0958C57.1054 110.27 57.1078 110.402 57.1078 110.559C57.1866 110.359 57.3825 110.146 57.7468 110.144V110.625C57.3084 110.625 57.1149 110.814 57.1149 111.277V112.24H56.6419V110.876L56.6431 110.877Z" fill="white" style="fill:white;fill-opacity:1;"/>
<path d="M60.7639 110.178H61.0685V109.604H61.5379V110.178H61.9213V110.55H61.5379V111.688C61.5379 111.839 61.5749 111.903 61.7457 111.903C61.7971 111.903 61.8281 111.9 61.8807 111.892V112.225C61.7839 112.257 61.6442 112.263 61.5701 112.263C61.2046 112.263 61.0673 112.119 61.0673 111.749V110.55H60.7627V110.178H60.7639Z" fill="white" style="fill:white;fill-opacity:1;"/>
<path d="M69.2015 111.438C69.2457 111.725 69.4356 111.892 69.7414 111.892C70.0472 111.892 70.2072 111.744 70.2072 111.511C70.2072 111.242 70.0579 111.13 69.6303 111.005C69.0128 110.828 68.793 110.612 68.793 110.215C68.793 109.729 69.1752 109.448 69.696 109.448C70.3339 109.448 70.605 109.795 70.6361 110.219H70.1571C70.12 109.988 69.9994 109.826 69.6901 109.826C69.4165 109.826 69.2816 109.955 69.2816 110.167C69.2816 110.391 69.4213 110.465 69.8298 110.585C70.525 110.791 70.7029 111.066 70.7029 111.455C70.7029 111.908 70.3984 112.274 69.7175 112.274C69.1263 112.274 68.7536 111.97 68.7178 111.439H69.1991L69.2015 111.438Z" fill="white" style="fill:white;fill-opacity:1;"/>
<path d="M75.7256 111.179C75.7256 111.78 75.4461 112.278 74.7593 112.278C74.0725 112.278 73.8145 111.75 73.8145 111.19C73.8145 110.667 74.1071 110.138 74.7867 110.138C75.4246 110.138 75.7256 110.607 75.7256 111.178V111.179ZM74.297 111.179C74.297 111.631 74.463 111.902 74.7808 111.902C75.0985 111.902 75.2466 111.634 75.2466 111.182C75.2466 110.76 75.0901 110.514 74.7676 110.514C74.463 110.514 74.2982 110.778 74.2982 111.179H74.297Z" fill="white" style="fill:white;fill-opacity:1;"/>
<path d="M78.9434 112.24V109.32H79.4164V112.24H78.9434Z" fill="white" style="fill:white;fill-opacity:1;"/>
<path d="M84.4149 111.641C84.4149 111.925 84.4184 112.138 84.4232 112.242H83.9646C83.9526 112.181 83.949 112.08 83.9454 111.967C83.8296 112.184 83.6373 112.277 83.3649 112.277C82.9827 112.277 82.7295 112.054 82.7295 111.558V110.179H83.1989V111.477C83.1989 111.711 83.2789 111.883 83.531 111.883C83.783 111.883 83.9383 111.723 83.9383 111.33V110.179H84.4137V111.641H84.4149Z" fill="white" style="fill:white;fill-opacity:1;"/>
<path d="M87.5451 110.178H87.8497V109.604H88.3191V110.178H88.7026V110.55H88.3191V111.688C88.3191 111.839 88.3562 111.903 88.527 111.903C88.5783 111.903 88.6094 111.9 88.662 111.892V112.225C88.5652 112.257 88.4254 112.263 88.3514 112.263C87.9859 112.263 87.8485 112.119 87.8485 111.749V110.55H87.5439V110.178H87.5451Z" fill="white" style="fill:white;fill-opacity:1;"/>
<path d="M91.8418 109.32H92.3148V109.798H91.8418V109.32ZM91.8418 110.178H92.3148V112.241H91.8418V110.178Z" fill="white" style="fill:white;fill-opacity:1;"/>
<path d="M97.4443 111.179C97.4443 111.78 97.1648 112.278 96.478 112.278C95.7912 112.278 95.5332 111.75 95.5332 111.19C95.5332 110.667 95.8258 110.138 96.5055 110.138C97.1433 110.138 97.4443 110.607 97.4443 111.178V111.179ZM96.0158 111.179C96.0158 111.631 96.1818 111.902 96.4995 111.902C96.8172 111.902 96.9653 111.634 96.9653 111.182C96.9653 110.76 96.8089 110.514 96.4864 110.514C96.1818 110.514 96.017 110.778 96.017 111.179H96.0158Z" fill="white" style="fill:white;fill-opacity:1;"/>
<path d="M100.662 110.822C100.662 110.396 100.658 110.268 100.653 110.178H101.114C101.122 110.215 101.132 110.371 101.131 110.464C101.216 110.295 101.407 110.138 101.716 110.138C102.132 110.138 102.37 110.393 102.37 110.896V112.241H101.896V110.983C101.896 110.728 101.824 110.534 101.549 110.534C101.274 110.534 101.133 110.722 101.133 111.106V112.241H100.66V110.822H100.662Z" fill="white" style="fill:white;fill-opacity:1;"/>
<path d="M105.995 111.619C106.024 111.816 106.166 111.928 106.386 111.928C106.606 111.928 106.715 111.829 106.715 111.682C106.715 111.535 106.593 111.462 106.267 111.371C105.733 111.223 105.604 111.033 105.604 110.745C105.604 110.481 105.774 110.139 106.357 110.139C106.889 110.139 107.106 110.418 107.131 110.754H106.67C106.649 110.624 106.576 110.486 106.336 110.486C106.16 110.486 106.068 110.566 106.068 110.702C106.068 110.827 106.15 110.89 106.462 110.971C107.013 111.115 107.182 111.31 107.182 111.639C107.182 112.049 106.845 112.277 106.373 112.277C105.901 112.277 105.575 112.059 105.533 111.62H105.995V111.619Z" fill="white" style="fill:white;fill-opacity:1;"/>
<path d="M18.8244 96.5935C15.8036 95.8445 14.7262 95.141 14.7262 93.3386C14.7262 91.5362 16.0138 90.411 18.38 90.411C20.9564 90.411 22.1043 91.6759 22.4782 93.4318H23.7897C23.5794 91.4406 22.0565 89.2393 18.4505 89.2393C14.8445 89.2393 13.3681 91.2531 13.3681 93.4079C13.3681 95.7729 14.8672 96.898 18.3334 97.764C21.9407 98.6539 22.76 99.8017 22.76 101.652C22.76 103.502 21.6122 104.931 18.6153 104.931C15.9219 104.931 14.4694 103.643 13.9785 101.464H12.667C12.9716 103.666 14.4706 106.055 18.5687 106.055C22.3623 106.055 24.1193 103.97 24.1193 101.558C24.1193 99.5903 23.4397 97.7401 18.8267 96.5923L18.8244 96.5935Z" fill="white" style="fill:white;fill-opacity:1;"/>
<path d="M35.2404 104.299H35.1938C34.5846 102.449 31.7514 95.0945 29.5022 89.4746H27.6055V105.868H28.8704V98.8892C28.8704 96.0787 28.8238 92.2612 28.7067 90.3884H28.7533C29.5022 92.8704 32.9458 101.865 34.5141 105.87H35.7552C37.8395 100.694 41.1648 92.6136 41.8206 90.4122H41.891C41.8206 92.0522 41.7979 95.1196 41.7979 98.3278V105.87H43.0628V89.4758H41.1887C38.893 94.932 35.6142 103.107 35.2404 104.3V104.299Z" fill="white" style="fill:white;fill-opacity:1;"/>
<path d="M51.9856 89.4727L45.9668 105.866H47.2544L49.3387 100.199H56.2474L58.3783 105.866H59.7602L53.4834 89.4727H51.9844H51.9856ZM49.7842 99.0282C51.2594 94.8596 52.3141 91.9559 52.7118 90.7137H52.7357C53.0642 91.815 54.0006 94.1561 55.8269 99.0282H49.7842Z" fill="white" style="fill:white;fill-opacity:1;"/>
<path d="M73.4843 93.7822C73.4843 91.2058 71.7751 89.4727 68.5429 89.4727H62.665V105.866H63.9526V98.2076H67.9803C71.1181 98.2076 71.9148 99.3316 71.9148 102.025V102.447C71.9148 103.851 71.8443 105.163 72.1489 105.866H73.4365C73.132 105.235 73.2263 103.688 73.2263 102.541V101.909C73.2263 99.1226 72.1023 98.0213 70.4158 97.6235C72.2421 97.2258 73.4843 95.8665 73.4843 93.7822ZM67.911 97.0383H63.9526V90.6444H68.2622C70.8147 90.6444 72.1262 91.7923 72.1262 93.8061C72.1262 95.9609 70.7908 97.0383 67.911 97.0383Z" fill="white" style="fill:white;fill-opacity:1;"/>
<path d="M75.4043 90.6444H80.9083V105.868H82.1959V90.6444H87.7226V89.4727H75.4043V90.6444Z" fill="white" style="fill:white;fill-opacity:1;"/>
<path d="M92.898 89.4727V99.758C92.898 102.179 93.7568 103.988 96.5435 103.988C99.3301 103.988 100.118 102.262 100.118 99.7449V89.4727H102.413V99.8285C102.413 103.231 100.996 105.868 96.4849 105.868C92.253 105.868 90.625 103.628 90.625 99.9312V89.4739H92.8956L92.898 89.4727Z" fill="white" style="fill:white;fill-opacity:1;"/>
<path d="M106.271 89.4727H111.797C114.808 89.4727 117.116 91.0326 117.116 94.0151C117.116 97.2234 114.838 98.8156 111.529 98.8156H108.531V105.632H106.273V89.4727H106.271ZM108.53 96.9738H111.422C113.457 96.9738 114.809 96.2643 114.809 94.0605C114.809 92.1661 113.448 91.3145 111.461 91.3145H108.529V96.9738H108.53Z" fill="white" style="fill:white;fill-opacity:1;"/>
</svg>
