<svg width="49" height="49" viewBox="0 0 49 49" fill="none" xmlns="http://www.w3.org/2000/svg">
<path d="M24.219 0H24.2069C10.8565 0 0 10.8595 0 24.2129C0 29.5095 1.70701 34.4186 4.60953 38.4047L1.592 47.3998L10.8988 44.4246C14.7275 46.9609 19.2947 48.4258 24.219 48.4258C37.5693 48.4258 48.4258 37.5633 48.4258 24.2129C48.4258 10.8625 37.5693 0 24.219 0Z" fill="white" style="fill:white;fill-opacity:1;"/>
<path d="M38.3072 34.1915C37.723 35.841 35.4046 37.209 33.5554 37.6085C32.2903 37.8779 30.6377 38.0928 25.0748 35.7865C17.9592 32.8386 13.377 25.608 13.0198 25.1389C12.6778 24.6698 10.1445 21.3102 10.1445 17.8357C10.1445 14.3611 11.909 12.6692 12.6203 11.9429C13.2044 11.3466 14.1699 11.0742 15.0961 11.0742C15.3957 11.0742 15.6651 11.0894 15.9072 11.1015C16.6185 11.1317 16.9756 11.1741 17.4447 12.297C18.0289 13.7043 19.4514 17.1789 19.6209 17.536C19.7934 17.8932 19.9659 18.3774 19.7238 18.8466C19.4968 19.3308 19.297 19.5457 18.9399 19.9573C18.5827 20.3689 18.2437 20.6837 17.8866 21.1256C17.5597 21.51 17.1905 21.9216 17.6021 22.6329C18.0137 23.329 19.4362 25.6504 21.5307 27.5148C24.2334 29.9209 26.4247 30.6897 27.2086 31.0166C27.7927 31.2587 28.4888 31.2012 28.9156 30.7472C29.4573 30.1631 30.1262 29.1946 30.8072 28.2412C31.2915 27.5572 31.9029 27.4724 32.5445 27.7145C33.1982 27.9415 36.6577 29.6516 37.3689 30.0057C38.0802 30.3628 38.5493 30.5323 38.7218 30.8319C38.8913 31.1316 38.8913 32.539 38.3072 34.1915Z" fill="#2AA25A" style="fill:#2AA25A;fill:color(display-p3 0.1647 0.6353 0.3529);fill-opacity:1;"/>
</svg>
